<svg width="38" height="40" viewBox="0 0 38 40" fill="none" xmlns="http://www.w3.org/2000/svg">
<path d="M16.5 37C16.5 38.3807 17.6193 39.5 19 39.5C20.3807 39.5 21.5 38.3807 21.5 37L16.5 37ZM20.7678 1.23223C19.7915 0.255922 18.2085 0.255922 17.2322 1.23223L1.32233 17.1421C0.346019 18.1184 0.346019 19.7014 1.32233 20.6777C2.29864 21.654 3.88155 21.654 4.85786 20.6777L19 6.53553L33.1421 20.6777C34.1184 21.654 35.7014 21.654 36.6777 20.6777C37.654 19.7014 37.654 18.1184 36.6777 17.1421L20.7678 1.23223ZM21.5 37L21.5 3L16.5 3L16.5 37L21.5 37Z" fill="white"/>
</svg>
