<svg width="549" height="182" viewBox="0 0 549 182" fill="none" xmlns="http://www.w3.org/2000/svg">
<path d="M215.3 79.3C213.6 79.2 212.2 78.5 211.1 77.3C210 76.1 209.4 74.7 209.5 73.1L209.6 71C209.7 69.3 210.4 67.9 211.7 66.8C212.9 65.7 214.4 65.2 216.1 65.3C238.8 66.4 261.7 68.8 284.9 72.5C286.5 72.8 287.8 73.6 288.9 74.9C289.9 76.2 290.4 77.7 290.2 79.4L290 81.5C289.9 83.1 289.1 84.4 287.8 85.4C286.5 86.4 285 86.7 283.4 86.5C260.7 82.8 238 80.4 215.3 79.3ZM286.4 17.5C286.3 19.1 285.5 20.4 284.2 21.4C282.9 22.4 281.4 22.8 279.8 22.6C259.6 19.9 239.6 18.2 219.7 17.3C218.1 17.2 216.7 16.6 215.6 15.4C214.5 14.2 214 12.8 214.1 11.1V9.4C214.2 7.8 214.9 6.4 216.1 5.2C217.3 4 218.7 3.5 220.3 3.6C240.1 4.5 260.4 6.3 281.3 9C282.9 9.2 284.2 10 285.3 11.3C286.3 12.6 286.8 14.1 286.6 15.7L286.4 17.5ZM275 38.7C276.6 39 277.9 39.8 278.9 41.2C279.9 42.6 280.3 44.1 280.1 45.7L279.9 47.8C279.7 49.4 278.9 50.7 277.6 51.7C276.3 52.7 274.8 53 273.2 52.8C257 50.2 240.8 48.4 224.3 47.4C222.7 47.3 221.3 46.7 220.2 45.4C219.1 44.1 218.6 42.7 218.8 41.1L219 39.1C219.1 37.4 219.8 36 221.1 34.9C222.3 33.8 223.8 33.3 225.5 33.4C241.8 34.3 258.4 36.1 275 38.7Z" fill="#322D2C" stroke="#322D2C" stroke-width="1.5048" stroke-miterlimit="10"/>
<path d="M342.1 19C340.6 18.3 339.6 17.2 339.2 15.6C338.7 14.1 338.8 12.6 339.6 11.2L340.7 9.09998C341.5 7.59998 342.6 6.59998 344.2 6.19998C345.8 5.69998 347.3 5.79998 348.9 6.49998C355.9 9.89998 363.2 13.7 370.9 17.9C372.3 18.7 373.2 19.9 373.7 21.5C374.2 23.1 374 24.6 373.2 26L372 28.1C371.2 29.5 370 30.4 368.4 30.9C366.8 31.4 365.3 31.2 363.9 30.4C355.7 25.9 348.4 22.1 342.1 19ZM415.4 15.6C417 16 418.3 16.8 419.2 18.2C420.1 19.6 420.4 21.1 420 22.7C415.9 40.7 407.8 54.9 395.7 65C383.7 75.2 367.4 81.6 347 84.2C345.3 84.4 343.8 84 342.5 83C341.2 82 340.4 80.6 340.1 78.9L339.9 77C339.6 75.4 340 73.9 341 72.6C342 71.3 343.3 70.5 344.9 70.3C362.2 67.9 375.8 62.6 385.7 54.5C395.6 46.4 402.5 34.7 406.5 19.6C406.9 18 407.8 16.7 409.2 15.8C410.6 14.9 412.1 14.6 413.7 15L415.4 15.6Z" fill="#322D2C" stroke="#322D2C" stroke-width="1.5048" stroke-miterlimit="10"/>
<path d="M471.4 88.4C469.8 88.4 468.4 87.8 467.2 86.7C466 85.6 465.5 84.2 465.5 82.5V7.29999C465.5 5.69999 466.1 4.29999 467.2 3.09999C468.3 1.89999 469.7 1.39999 471.4 1.39999H474.2C475.8 1.39999 477.2 1.99999 478.4 3.09999C479.6 4.29999 480.2 5.59999 480.2 7.29999V30.1C480.2 30.7 480.4 31.1 480.9 31.2C497.6 35.3 514.6 40.4 531.9 46.5C533.4 47.1 534.6 48.1 535.3 49.6C536 51.1 536.1 52.6 535.6 54.2L535 56.2C534.4 57.7 533.4 58.9 532 59.6C530.6 60.3 529.1 60.4 527.5 59.9C510.9 54.1 495.3 49.3 480.9 45.7C480.7 45.6 480.5 45.7 480.4 45.9C480.3 46.1 480.2 46.3 480.2 46.5V82.7C480.2 84.3 479.6 85.7 478.4 86.9C477.2 88.1 475.8 88.6 474.2 88.6H471.4V88.4Z" fill="#322D2C" stroke="#322D2C" stroke-width="1.5048" stroke-miterlimit="10"/>
<path d="M211.3 179.6C210.1 179.6 209.1 179.2 208.3 178.5C207.5 177.8 207 176.9 207 175.9V149.8C207 148.8 207.4 148 208.3 147.2C209.1 146.5 210.2 146.1 211.3 146.1H212.4C213.6 146.1 214.6 146.4 215.4 147.1C216.2 147.8 216.7 148.6 216.7 149.6V150C216.7 150 216.7 150.1 216.8 150.1C216.9 150.1 217 150.1 217 150C220 146.9 223.4 145.4 227.2 145.4C229.5 145.4 231.4 145.8 232.8 146.5C234.2 147.2 235.5 148.5 236.5 150.4C236.5 150.4 236.6 150.5 236.7 150.5C236.8 150.5 236.8 150.5 236.9 150.4C240.1 147.1 243.8 145.5 247.8 145.5C252.1 145.5 255.1 146.5 257 148.4C258.9 150.3 259.8 153.6 259.8 158.4V175.9C259.8 176.9 259.4 177.7 258.5 178.5C257.7 179.2 256.6 179.6 255.5 179.6H254.2C253 179.6 252 179.2 251.1 178.5C250.2 177.8 249.8 176.9 249.8 175.9V159.7C249.8 156.6 249.4 154.5 248.7 153.5C248 152.5 246.6 152 244.5 152C243.2 152 241.8 152.5 240.5 153.5C239.2 154.5 238.5 155.6 238.5 156.6V175.9C238.5 176.9 238.1 177.7 237.2 178.5C236.3 179.2 235.3 179.6 234.1 179.6H232.8C231.6 179.6 230.6 179.2 229.8 178.5C229 177.8 228.5 176.9 228.5 175.9V159.7C228.5 156.6 228.1 154.6 227.4 153.6C226.7 152.6 225.3 152.1 223.2 152.1C221.9 152.1 220.5 152.6 219.2 153.6C217.9 154.6 217.2 155.7 217.2 156.7V176C217.2 177 216.8 177.8 215.9 178.6C215 179.3 214 179.7 212.8 179.7H211.3V179.6Z" fill="#322E2C"/>
<path d="M274.4 139.1C273.2 139.1 272.2 138.7 271.3 138C270.4 137.3 270 136.4 270 135.4V135C270 134 270.4 133.2 271.3 132.4C272.2 131.7 273.2 131.3 274.4 131.3H276.4C277.6 131.3 278.6 131.7 279.5 132.4C280.4 133.1 280.8 134 280.8 135V135.4C280.8 136.4 280.4 137.2 279.5 138C278.6 138.7 277.6 139.1 276.4 139.1H274.4ZM274.4 179.6C273.2 179.6 272.2 179.2 271.3 178.5C270.4 177.8 270 176.9 270 175.9V149.8C270 148.8 270.4 148 271.3 147.2C272.2 146.5 273.2 146.1 274.4 146.1H276.4C277.6 146.1 278.6 146.5 279.5 147.2C280.4 147.9 280.8 148.8 280.8 149.8V175.9C280.8 176.9 280.4 177.7 279.5 178.5C278.6 179.2 277.6 179.6 276.4 179.6H274.4Z" fill="#322E2C"/>
<path d="M295.9 179.6C294.7 179.6 293.7 179.2 292.8 178.5C291.9 177.8 291.5 176.9 291.5 175.9V149.8C291.5 148.8 291.9 148 292.8 147.2C293.7 146.5 294.7 146.1 295.9 146.1H296.9C298.1 146.1 299.2 146.5 300 147.2C300.8 147.9 301.3 148.8 301.3 149.8V150.2C301.3 150.2 301.3 150.3 301.4 150.3C301.5 150.3 301.5 150.3 301.6 150.2C305.1 147 309.2 145.4 313.8 145.4C318.5 145.4 321.9 146.5 324 148.7C326.1 150.9 327.2 154.6 327.2 159.7V175.7C327.2 176.7 326.8 177.5 325.9 178.3C325 179 324 179.4 322.8 179.4H321.5C320.3 179.4 319.3 179 318.5 178.3C317.7 177.6 317.2 176.7 317.2 175.7V160.3C317.2 157.1 316.7 154.9 315.7 153.7C314.7 152.5 312.9 151.9 310.3 151.9C308.2 151.9 306.2 152.6 304.4 154.1C302.6 155.6 301.7 157.2 301.7 158.9V175.6C301.7 176.6 301.3 177.4 300.4 178.2C299.5 178.9 298.5 179.3 297.3 179.3H295.9V179.6Z" fill="#322E2C"/>
<path d="M336.9 153.7C335.9 153.7 335 153.4 334.3 152.8C333.6 152.2 333.2 151.4 333.2 150.6C333.2 149.7 333.6 149 334.3 148.4C335 147.8 335.9 147.5 336.9 147.5H340.6C341.1 147.5 341.3 147.3 341.3 146.9V138.9C341.3 137.9 341.7 137.1 342.6 136.3C343.4 135.6 344.5 135.2 345.6 135.2H347.1C348.3 135.2 349.3 135.6 350.2 136.3C351.1 137 351.5 137.9 351.5 138.9V146.9C351.5 147.3 351.7 147.5 352.2 147.5H361C362 147.5 362.9 147.8 363.7 148.4C364.4 149 364.8 149.7 364.8 150.6C364.8 151.5 364.4 152.2 363.7 152.8C363 153.4 362.1 153.7 361 153.7H352.2C351.7 153.7 351.5 153.9 351.5 154.2V167.2C351.5 170 351.9 171.8 352.6 172.6C353.3 173.4 354.8 173.8 357.1 173.8C358.3 173.8 359.3 173.8 359.9 173.7C360.9 173.6 361.8 173.8 362.6 174.3C363.4 174.8 363.8 175.4 363.8 176.2C363.8 177.1 363.4 178 362.7 178.7C362 179.4 361 179.9 360 180C357.7 180.2 356 180.3 354.9 180.3C349.9 180.3 346.4 179.4 344.4 177.6C342.4 175.8 341.4 172.6 341.4 168.1V154.3C341.4 154 341.2 153.8 340.7 153.8H336.9V153.7Z" fill="#322E2C"/>
<path d="M157.8 86.3C161.4 74.7 172.1 32.3 167.2 19.3C153.5 14.5 118.6 17.6 118.1 17C117.6 16.4 117.2 9.50001 117.4 7.20001C102.5 10.7 72.7 16.6 51.8 38C50 38.5 50.4 31.6 49.8 30.7C38.7 38.2 16.2 70.7 17.3 85C17.4 86.1 11.9 82.6 11.1 80.7C4.50001 90.7 -0.39999 148.3 28.9 169.1C55.3 187.9 129.4 167.1 150.5 127.7C147 128.3 139.8 128.9 141.5 127.1C148.2 121 165.1 96 168 84.6C164.9 84.8 158.4 86.3 157.8 86.3Z" fill="#B6DDCC" stroke="#322D2C" stroke-width="11.1355" stroke-miterlimit="10" stroke-linecap="round" stroke-linejoin="round"/>
<path d="M41.2 150C60 98.8 89.5999 67.2 134.4 41.3" stroke="#322D2C" stroke-width="11.1355" stroke-miterlimit="10" stroke-linecap="round" stroke-linejoin="round"/>
<path d="M91.5001 68C86.7001 57.3 87.4001 46.1 92.1001 35.4" stroke="#322D2C" stroke-width="11.1355" stroke-miterlimit="10" stroke-linecap="round" stroke-linejoin="round"/>
<path d="M94.2 70.7C101.5 77.1 120.2 76.5 131.8 71.3" stroke="#322D2C" stroke-width="11.1355" stroke-miterlimit="10" stroke-linecap="round" stroke-linejoin="round"/>
<path d="M51.2 124.8C41.4 115.4 35.9 96.3 39.9 81.8" stroke="#322D2C" stroke-width="11.1355" stroke-miterlimit="10" stroke-linecap="round" stroke-linejoin="round"/>
<path d="M52.6 126.1C60.8 130.6 81.2 137 104.2 124.6" stroke="#322D2C" stroke-width="11.1355" stroke-miterlimit="10" stroke-linecap="round" stroke-linejoin="round"/>
<path d="M545 118.1H202C200.1 118.1 198.6 116.6 198.6 114.7V113C198.6 111.1 200.1 109.6 202 109.6H545C546.9 109.6 548.4 111.1 548.4 113V114.7C548.4 116.6 546.9 118.1 545 118.1Z" fill="#322E2C"/>
<path d="M385.3 180.3C384.5 180.2 383.9 179.9 383.4 179.5C382.9 179 382.7 178.5 382.7 177.8V154.5C382.7 153.9 382.9 153.3 383.4 152.8C383.9 152.3 384.5 152 385.3 152C387.3 151.8 389.5 151.7 391.9 151.7C397.4 151.7 401.6 152.9 404.5 155.3C407.4 157.7 408.9 161.2 408.9 165.8C408.9 170.7 407.4 174.4 404.5 176.9C401.6 179.4 397.4 180.6 391.9 180.6C389.5 180.5 387.3 180.4 385.3 180.3ZM389.1 156.5V175.7C389.1 175.9 389.2 176 389.5 176C390.5 176.1 391.4 176.2 392.3 176.2C395.9 176.2 398.6 175.4 400.2 173.8C401.9 172.2 402.7 169.5 402.7 165.7C402.7 162.3 401.8 159.9 400.1 158.3C398.4 156.7 395.7 156 392.2 156C391.3 156 390.4 156.1 389.4 156.2C389.2 156.2 389.1 156.3 389.1 156.5Z" fill="#322E2C" stroke="#322D2C" stroke-width="0.7524" stroke-miterlimit="10"/>
<path d="M415.3 180.1C414.6 180.1 414 179.9 413.5 179.4C413 179 412.7 178.5 412.7 177.9V154.2C412.7 153.6 413 153.1 413.5 152.7C414 152.3 414.6 152 415.3 152H431C431.7 152 432.3 152.2 432.8 152.7C433.3 153.1 433.6 153.7 433.6 154.2C433.6 154.8 433.3 155.3 432.8 155.7C432.3 156.1 431.7 156.3 431 156.3H419.5C419.2 156.3 419.1 156.4 419.1 156.6V162.8C419.1 163 419.2 163.1 419.5 163.1H430.2C430.9 163.1 431.5 163.3 432 163.7C432.5 164.1 432.7 164.6 432.7 165.2C432.7 165.8 432.5 166.2 432 166.6C431.5 167 430.9 167.2 430.2 167.2H419.5C419.2 167.2 419.1 167.3 419.1 167.5V175.2C419.1 175.4 419.2 175.5 419.5 175.5H431C431.7 175.5 432.3 175.7 432.8 176.1C433.3 176.5 433.6 177 433.6 177.6C433.6 178.2 433.3 178.7 432.8 179.1C432.3 179.5 431.7 179.8 431 179.8H415.3V180.1Z" fill="#322E2C" stroke="#322D2C" stroke-width="0.7524" stroke-miterlimit="10"/>
<path d="M448.5 168.3C444.8 167.3 442.1 166 440.5 164.6C438.9 163.1 438 161.4 438 159.3C438 157 438.9 155.1 440.8 153.8C442.7 152.4 445.3 151.8 448.7 151.8C451.6 151.8 454.1 152.1 456.2 152.6C456.9 152.8 457.5 153.1 458 153.7C458.4 154.3 458.7 154.9 458.7 155.5V155.8C458.7 156.3 458.4 156.7 457.9 156.9C457.4 157.2 456.8 157.2 456.3 157C454 156.3 451.6 155.9 449.2 155.9C447.7 155.9 446.5 156.2 445.7 156.8C444.9 157.4 444.5 158.2 444.5 159.3C444.5 161.1 445.9 162.5 448.8 163.3C453 164.4 455.8 165.7 457.5 167.1C459.2 168.5 459.9 170.3 459.9 172.6C459.9 178 455.9 180.7 447.9 180.7C445.4 180.7 443.1 180.4 441.1 179.7C440.4 179.5 439.8 179.1 439.4 178.5C439 177.9 438.8 177.3 438.8 176.6V176C438.8 175.5 439 175.2 439.5 174.9C440 174.7 440.5 174.7 441 174.9C443 175.7 445.2 176.2 447.4 176.2C451.3 176.2 453.3 175 453.3 172.5C453.3 171.5 452.9 170.7 452.2 170C451.5 169.4 450.2 168.8 448.5 168.3Z" fill="#322E2C" stroke="#322D2C" stroke-width="0.7524" stroke-miterlimit="10"/>
<path d="M468.2 180.1C467.5 180.1 466.9 179.9 466.4 179.4C465.9 179 465.6 178.5 465.6 177.9V154.2C465.6 153.6 465.9 153.1 466.4 152.7C466.9 152.3 467.5 152 468.2 152H470C470.7 152 471.3 152.2 471.8 152.7C472.3 153.1 472.6 153.7 472.6 154.2V177.9C472.6 178.5 472.3 179 471.8 179.4C471.3 179.8 470.7 180.1 470 180.1H468.2Z" fill="#322E2C" stroke="#322D2C" stroke-width="0.7524" stroke-miterlimit="10"/>
<path d="M494.1 180.5C489.1 180.5 485.1 179.2 482.1 176.6C479 174 477.5 170.5 477.5 166C477.5 161.5 479 157.9 482.1 155.4C485.2 152.8 489.4 151.6 494.8 151.6C497 151.6 499 151.7 500.9 152C501.6 152.1 502.3 152.4 502.7 152.9C503.2 153.4 503.4 154 503.4 154.6V154.8C503.4 155.3 503.1 155.8 502.6 156.1C502.1 156.4 501.5 156.5 500.8 156.4C499 156.1 497.2 155.9 495.4 155.9C491.7 155.9 488.8 156.8 486.9 158.5C485 160.2 484 162.7 484 166.1C484 169.4 484.9 171.9 486.8 173.6C488.7 175.3 491.3 176.2 494.5 176.2C495.8 176.2 497.1 176 498.4 175.7C498.6 175.6 498.8 175.5 498.8 175.3V167.7C498.8 167.5 498.7 167.4 498.4 167.4H492.6C491.9 167.4 491.3 167.2 490.9 166.8C490.4 166.4 490.2 165.9 490.2 165.4C490.2 164.8 490.4 164.3 490.9 163.9C491.4 163.5 492 163.3 492.6 163.3H502.3C503 163.3 503.6 163.5 504.1 164C504.6 164.4 504.9 165 504.9 165.5V176.7C504.9 177.4 504.7 178 504.2 178.5C503.7 179 503.1 179.4 502.4 179.6C499.9 180.2 497.1 180.5 494.1 180.5Z" fill="#322E2C" stroke="#322D2C" stroke-width="0.7524" stroke-miterlimit="10"/>
<path d="M513.3 180.1C512.6 180.1 512 179.9 511.5 179.4C511 179 510.7 178.5 510.7 177.9V154.2C510.7 153.6 511 153.1 511.5 152.7C512 152.3 512.6 152 513.3 152H514.3C516.1 152 517.4 152.6 518.2 153.9L529.6 171.1V154.2C529.6 153.6 529.9 153.1 530.4 152.7C530.9 152.3 531.5 152 532.2 152H533.2C533.9 152 534.5 152.2 535 152.7C535.5 153.1 535.8 153.7 535.8 154.2V177.9C535.8 178.5 535.5 179 535 179.4C534.5 179.8 533.9 180.1 533.2 180.1H532.2C530.4 180.1 529.1 179.5 528.3 178.2L517.1 161V177.9C517.1 178.5 516.8 179 516.3 179.4C515.8 179.8 515.2 180.1 514.5 180.1H513.3Z" fill="#322E2C" stroke="#322D2C" stroke-width="0.7524" stroke-miterlimit="10"/>
</svg>
