<?xml version="1.0" encoding="iso-8859-1"?>
<!-- Generator: Adobe Illustrator 27.6.1, SVG Export Plug-In . SVG Version: 6.00 Build 0)  -->
<svg version="1.1" id="&#x30EC;&#x30A4;&#x30E4;&#x30FC;_1"
	 xmlns="http://www.w3.org/2000/svg" xmlns:xlink="http://www.w3.org/1999/xlink" x="0px" y="0px" viewBox="0 0 287.977 72.428"
	 style="enable-background:new 0 0 287.977 72.428;" xml:space="preserve">
<g>
	<path style="fill:#322D2C;stroke:#322D2C;stroke-width:0.75;stroke-miterlimit:10;" d="M75.748,28.012
		c-0.56-0.046-1.026-0.268-1.399-0.665c-0.374-0.396-0.549-0.863-0.525-1.4l0.035-0.7c0.047-0.56,0.274-1.021,0.683-1.382
		s0.893-0.531,1.452-0.508c7.537,0.374,15.155,1.167,22.855,2.38c0.536,0.093,0.974,0.362,1.312,0.805
		c0.338,0.444,0.483,0.945,0.438,1.505l-0.07,0.7c-0.047,0.537-0.286,0.968-0.718,1.295s-0.916,0.443-1.452,0.35
		C90.844,29.179,83.308,28.385,75.748,28.012z M99.373,7.502c-0.047,0.537-0.286,0.975-0.718,1.313
		c-0.432,0.339-0.916,0.473-1.452,0.403c-6.697-0.887-13.358-1.47-19.984-1.75c-0.537-0.023-0.992-0.239-1.365-0.647
		c-0.374-0.408-0.537-0.881-0.49-1.417v-0.56c0.047-0.537,0.269-0.998,0.665-1.383c0.396-0.385,0.863-0.565,1.4-0.542
		c6.58,0.304,13.335,0.898,20.265,1.785c0.536,0.07,0.974,0.321,1.312,0.752c0.338,0.432,0.483,0.916,0.438,1.453L99.373,7.502z
		 M95.592,14.537c0.537,0.094,0.969,0.368,1.296,0.823c0.326,0.455,0.454,0.951,0.385,1.487l-0.07,0.7
		c-0.07,0.537-0.327,0.968-0.77,1.295c-0.444,0.327-0.934,0.443-1.471,0.35c-5.366-0.863-10.779-1.458-16.239-1.785
		c-0.537-0.023-0.986-0.245-1.348-0.665c-0.362-0.42-0.52-0.898-0.473-1.435l0.07-0.665c0.046-0.56,0.273-1.021,0.683-1.382
		c0.407-0.362,0.893-0.531,1.452-0.508C84.568,13.055,90.063,13.651,95.592,14.537z"/>
	<path style="fill:#322D2C;stroke:#322D2C;stroke-width:0.75;stroke-miterlimit:10;" d="M114.738,7.992
		c-0.49-0.233-0.816-0.606-0.979-1.12c-0.164-0.513-0.117-1.003,0.14-1.47l0.35-0.7c0.257-0.49,0.647-0.816,1.173-0.98
		c0.525-0.163,1.044-0.128,1.558,0.105c2.31,1.12,4.748,2.38,7.314,3.78c0.467,0.257,0.775,0.654,0.928,1.19
		c0.151,0.537,0.1,1.038-0.157,1.505l-0.385,0.7c-0.258,0.467-0.654,0.776-1.19,0.928c-0.537,0.152-1.038,0.1-1.505-0.158
		C119.253,10.279,116.839,9.019,114.738,7.992z M139.098,6.872c0.536,0.117,0.956,0.409,1.26,0.875
		c0.303,0.467,0.396,0.969,0.28,1.505c-1.378,5.997-4.066,10.687-8.068,14.07s-9.396,5.507-16.187,6.37
		c-0.561,0.07-1.057-0.065-1.488-0.403s-0.694-0.788-0.787-1.347l-0.07-0.63c-0.093-0.536,0.023-1.021,0.351-1.452
		c0.326-0.432,0.758-0.683,1.295-0.753c5.74-0.793,10.255-2.543,13.545-5.25c3.29-2.706,5.588-6.568,6.895-11.585
		c0.141-0.536,0.443-0.957,0.91-1.26s0.968-0.396,1.505-0.28L139.098,6.872z"/>
	<path style="fill:#322D2C;stroke:#322D2C;stroke-width:0.75;stroke-miterlimit:10;" d="M155.933,31.057
		c-0.537,0-0.998-0.192-1.383-0.578c-0.385-0.385-0.577-0.846-0.577-1.382V4.107c0-0.536,0.192-0.997,0.577-1.382
		c0.385-0.385,0.846-0.578,1.383-0.578h0.944c0.537,0,1.003,0.193,1.4,0.578c0.396,0.385,0.595,0.846,0.595,1.382v7.56
		c0,0.21,0.082,0.327,0.245,0.35c5.553,1.354,11.2,3.045,16.939,5.075c0.514,0.187,0.893,0.525,1.138,1.015
		c0.245,0.49,0.274,1.004,0.088,1.54l-0.21,0.665c-0.188,0.514-0.52,0.887-0.998,1.12c-0.479,0.233-0.975,0.269-1.487,0.105
		c-5.53-1.937-10.687-3.511-15.47-4.725c-0.07-0.023-0.129-0.005-0.175,0.053c-0.047,0.059-0.07,0.123-0.07,0.192v12.04
		c0,0.537-0.198,0.998-0.595,1.382c-0.397,0.385-0.863,0.578-1.4,0.578H155.933z"/>
</g>
<g>
	<path style="fill:#322E2C;" d="M76.263,68.544c-0.497,0-0.923-0.152-1.28-0.459c-0.356-0.306-0.534-0.665-0.534-1.08V56.043
		c0-0.414,0.178-0.773,0.534-1.08c0.356-0.306,0.783-0.459,1.28-0.459h0.454c0.496,0,0.923,0.145,1.279,0.433
		s0.546,0.639,0.567,1.053v0.188c0,0.019,0.011,0.027,0.032,0.027c0.043,0,0.064-0.009,0.064-0.027
		c1.274-1.296,2.711-1.943,4.31-1.943c0.972,0,1.755,0.153,2.349,0.459s1.118,0.846,1.571,1.62c0,0.018,0.021,0.026,0.065,0.026
		c0.021,0,0.043-0.009,0.064-0.026c1.361-1.386,2.895-2.079,4.601-2.079c1.793,0,3.083,0.405,3.872,1.215
		c0.788,0.81,1.183,2.205,1.183,4.185v7.371c0,0.415-0.178,0.774-0.534,1.08c-0.356,0.307-0.783,0.459-1.28,0.459H94.31
		c-0.497,0-0.929-0.152-1.296-0.459c-0.367-0.306-0.551-0.665-0.551-1.08v-6.831c0-1.313-0.151-2.178-0.453-2.592
		c-0.303-0.414-0.887-0.621-1.75-0.621c-0.562,0-1.123,0.216-1.685,0.648c-0.562,0.432-0.843,0.864-0.843,1.296v8.1
		c0,0.415-0.184,0.774-0.551,1.08c-0.367,0.307-0.8,0.459-1.296,0.459h-0.551c-0.497,0-0.924-0.152-1.28-0.459
		c-0.356-0.306-0.534-0.665-0.534-1.08v-6.831c0-1.296-0.157-2.155-0.47-2.578c-0.313-0.423-0.902-0.635-1.766-0.635
		c-0.562,0-1.124,0.216-1.686,0.648c-0.562,0.432-0.842,0.864-0.842,1.296v8.1c0,0.415-0.184,0.774-0.551,1.08
		c-0.368,0.307-0.8,0.459-1.296,0.459H76.263z"/>
	<path style="fill:#322E2C;" d="M102.832,51.534c-0.497,0-0.93-0.152-1.296-0.459c-0.368-0.306-0.551-0.666-0.551-1.08v-0.162
		c0-0.414,0.183-0.773,0.551-1.08c0.366-0.306,0.799-0.459,1.296-0.459h0.842c0.497,0,0.929,0.153,1.296,0.459
		c0.367,0.307,0.551,0.666,0.551,1.08v0.162c0,0.414-0.184,0.774-0.551,1.08c-0.367,0.307-0.799,0.459-1.296,0.459H102.832z
		 M102.832,68.544c-0.497,0-0.93-0.152-1.296-0.459c-0.368-0.306-0.551-0.665-0.551-1.08V56.043c0-0.414,0.183-0.773,0.551-1.08
		c0.366-0.306,0.799-0.459,1.296-0.459h0.842c0.497,0,0.929,0.153,1.296,0.459c0.367,0.307,0.551,0.666,0.551,1.08v10.962
		c0,0.415-0.184,0.774-0.551,1.08c-0.367,0.307-0.799,0.459-1.296,0.459H102.832z"/>
	<path style="fill:#322E2C;" d="M111.838,68.544c-0.497,0-0.929-0.152-1.296-0.459c-0.367-0.306-0.551-0.665-0.551-1.08V56.043
		c0-0.414,0.184-0.773,0.551-1.08c0.367-0.306,0.799-0.459,1.296-0.459h0.422c0.519,0,0.955,0.148,1.312,0.445
		c0.356,0.298,0.546,0.662,0.567,1.094v0.189c0,0.018,0.011,0.026,0.032,0.026s0.043-0.009,0.065-0.026
		c1.468-1.332,3.186-1.998,5.151-1.998c1.965,0,3.396,0.464,4.293,1.391c0.896,0.927,1.345,2.47,1.345,4.63v6.75
		c0,0.415-0.185,0.774-0.551,1.08c-0.368,0.307-0.8,0.459-1.296,0.459h-0.551c-0.498,0-0.924-0.152-1.28-0.459
		c-0.356-0.306-0.534-0.665-0.534-1.08v-6.479c0-1.351-0.211-2.272-0.632-2.768c-0.422-0.495-1.172-0.742-2.252-0.742
		c-0.886,0-1.707,0.314-2.463,0.944c-0.756,0.631-1.134,1.306-1.134,2.025v7.02c0,0.415-0.184,0.774-0.551,1.08
		c-0.367,0.307-0.8,0.459-1.296,0.459H111.838z"/>
	<path style="fill:#322E2C;" d="M129.107,57.663c-0.432,0-0.799-0.13-1.102-0.392c-0.303-0.261-0.453-0.571-0.453-0.932
		c0-0.359,0.15-0.665,0.453-0.918c0.303-0.252,0.67-0.378,1.102-0.378h1.556c0.194,0,0.291-0.081,0.291-0.243v-3.348
		c0-0.414,0.179-0.773,0.535-1.08c0.356-0.306,0.782-0.459,1.279-0.459h0.648c0.497,0,0.929,0.153,1.296,0.459
		c0.367,0.307,0.551,0.666,0.551,1.08v3.348c0,0.162,0.098,0.243,0.292,0.243h3.693c0.432,0,0.805,0.126,1.118,0.378
		c0.312,0.253,0.47,0.559,0.47,0.918c0,0.36-0.157,0.671-0.47,0.932c-0.313,0.262-0.687,0.392-1.118,0.392h-3.693
		c-0.194,0-0.292,0.072-0.292,0.216v5.454c0,1.171,0.151,1.927,0.454,2.269c0.302,0.342,0.928,0.513,1.879,0.513
		c0.519,0,0.907-0.018,1.166-0.054c0.432-0.036,0.811,0.045,1.134,0.242c0.324,0.199,0.486,0.469,0.486,0.811
		c0,0.396-0.157,0.752-0.47,1.066c-0.313,0.315-0.696,0.49-1.15,0.526c-0.95,0.072-1.663,0.108-2.138,0.108
		c-2.096,0-3.564-0.374-4.407-1.121c-0.842-0.746-1.264-2.083-1.264-4.009v-5.806c0-0.144-0.097-0.216-0.291-0.216H129.107z"/>
</g>
<path style="fill:#322E2C;" d="M281.681,42.928H72.344c-0.624,0-1.13-0.506-1.13-1.13v-0.575c0-0.624,0.506-1.13,1.13-1.13h209.337
	c0.624,0,1.13,0.506,1.13,1.13v0.575C282.811,42.422,282.305,42.928,281.681,42.928z"/>
<g>
	<path style="fill:#322E2C;stroke:#322D2C;stroke-width:0.5;stroke-miterlimit:10;" d="M150.177,68.861
		c-0.301-0.029-0.547-0.137-0.738-0.322c-0.192-0.185-0.288-0.402-0.288-0.652v-9.09c0-0.25,0.096-0.468,0.288-0.652
		c0.191-0.186,0.438-0.293,0.738-0.323c0.768-0.069,1.626-0.104,2.574-0.104c2.136,0,3.771,0.465,4.904,1.395
		c1.134,0.931,1.701,2.29,1.701,4.08c0,1.92-0.567,3.363-1.701,4.328s-2.769,1.447-4.904,1.447
		C151.803,68.966,150.945,68.931,150.177,68.861z M151.653,59.606v7.47c0,0.07,0.048,0.115,0.145,0.136
		c0.384,0.05,0.743,0.075,1.08,0.075c1.403,0,2.436-0.317,3.096-0.953c0.66-0.635,0.99-1.683,0.99-3.143
		c0-1.31-0.337-2.27-1.009-2.88c-0.672-0.609-1.698-0.915-3.077-0.915c-0.337,0-0.696,0.025-1.08,0.075
		C151.701,59.491,151.653,59.536,151.653,59.606z"/>
	<path style="fill:#322E2C;stroke:#322D2C;stroke-width:0.5;stroke-miterlimit:10;" d="M162.418,68.816
		c-0.276,0-0.517-0.085-0.721-0.255s-0.306-0.37-0.306-0.6v-9.24c0-0.229,0.102-0.43,0.306-0.6s0.444-0.256,0.721-0.256h6.12
		c0.275,0,0.516,0.086,0.72,0.256s0.306,0.37,0.306,0.6c0,0.23-0.102,0.428-0.306,0.593s-0.444,0.247-0.72,0.247h-4.465
		c-0.107,0-0.161,0.045-0.161,0.135v2.415c0,0.09,0.054,0.136,0.161,0.136h4.158c0.276,0,0.507,0.08,0.693,0.239
		c0.186,0.16,0.279,0.351,0.279,0.57s-0.094,0.407-0.279,0.562c-0.187,0.155-0.417,0.232-0.693,0.232h-4.158
		c-0.107,0-0.161,0.045-0.161,0.135v3c0,0.09,0.054,0.136,0.161,0.136h4.465c0.275,0,0.516,0.082,0.72,0.247
		s0.306,0.362,0.306,0.593c0,0.229-0.102,0.43-0.306,0.6s-0.444,0.255-0.72,0.255H162.418z"/>
	<path style="fill:#322E2C;stroke:#322D2C;stroke-width:0.5;stroke-miterlimit:10;" d="M175.863,64.196
		c-1.439-0.399-2.48-0.885-3.123-1.455c-0.642-0.569-0.963-1.26-0.963-2.069c0-0.91,0.366-1.63,1.099-2.16
		c0.731-0.53,1.758-0.795,3.078-0.795c1.115,0,2.088,0.104,2.916,0.314c0.287,0.07,0.519,0.213,0.692,0.428s0.261,0.453,0.261,0.713
		v0.135c0,0.19-0.102,0.338-0.306,0.442c-0.204,0.105-0.414,0.123-0.63,0.053c-0.9-0.29-1.818-0.436-2.754-0.436
		c-0.601,0-1.057,0.115-1.368,0.346c-0.312,0.229-0.468,0.55-0.468,0.96c0,0.72,0.563,1.235,1.691,1.545
		c1.62,0.43,2.745,0.92,3.375,1.47c0.631,0.55,0.945,1.26,0.945,2.13c0,2.101-1.554,3.15-4.662,3.15
		c-0.972,0-1.854-0.125-2.646-0.375c-0.288-0.09-0.514-0.245-0.675-0.465c-0.162-0.22-0.243-0.465-0.243-0.735v-0.18
		c0-0.19,0.096-0.328,0.288-0.413c0.191-0.085,0.39-0.087,0.594-0.007c0.792,0.33,1.626,0.495,2.502,0.495
		c1.523,0,2.286-0.48,2.286-1.44c0-0.39-0.145-0.713-0.433-0.968S176.548,64.396,175.863,64.196z"/>
	<path style="fill:#322E2C;stroke:#322D2C;stroke-width:0.5;stroke-miterlimit:10;" d="M184.089,68.816
		c-0.275,0-0.516-0.085-0.72-0.255s-0.306-0.37-0.306-0.6v-9.24c0-0.229,0.102-0.43,0.306-0.6s0.444-0.256,0.72-0.256h0.721
		c0.275,0,0.516,0.086,0.72,0.256s0.306,0.37,0.306,0.6v9.24c0,0.229-0.102,0.43-0.306,0.6s-0.444,0.255-0.72,0.255H184.089z"/>
	<path style="fill:#322E2C;stroke:#322D2C;stroke-width:0.5;stroke-miterlimit:10;" d="M194.709,68.966
		c-1.932,0-3.495-0.503-4.688-1.508c-1.194-1.005-1.791-2.377-1.791-4.117c0-1.76,0.594-3.138,1.781-4.133
		c1.188-0.995,2.832-1.492,4.933-1.492c0.864,0,1.649,0.05,2.357,0.149c0.288,0.04,0.528,0.158,0.721,0.353
		c0.191,0.195,0.288,0.418,0.288,0.668v0.06c0,0.21-0.103,0.381-0.307,0.511s-0.432,0.17-0.684,0.119
		c-0.708-0.129-1.41-0.194-2.106-0.194c-1.452,0-2.553,0.332-3.303,0.997s-1.125,1.652-1.125,2.963c0,1.27,0.369,2.247,1.107,2.933
		c0.737,0.685,1.736,1.027,2.997,1.027c0.516,0,1.025-0.061,1.529-0.18c0.096-0.021,0.145-0.075,0.145-0.165v-2.971
		c0-0.09-0.049-0.135-0.145-0.135h-2.25c-0.264,0-0.489-0.077-0.675-0.232c-0.187-0.155-0.279-0.343-0.279-0.562
		c0-0.229,0.093-0.422,0.279-0.577c0.186-0.155,0.411-0.232,0.675-0.232h3.78c0.275,0,0.516,0.085,0.72,0.255s0.307,0.37,0.307,0.6
		v4.365c0,0.26-0.091,0.495-0.271,0.705s-0.414,0.35-0.702,0.42C196.983,68.841,195.884,68.966,194.709,68.966z"/>
	<path style="fill:#322E2C;stroke:#322D2C;stroke-width:0.5;stroke-miterlimit:10;" d="M202.736,68.816
		c-0.275,0-0.513-0.085-0.711-0.255c-0.197-0.17-0.297-0.37-0.297-0.6v-9.24c0-0.229,0.1-0.43,0.297-0.6
		c0.198-0.17,0.436-0.256,0.711-0.256h0.396c0.684,0,1.188,0.251,1.512,0.75l4.446,6.69c0,0.01,0.006,0.015,0.018,0.015
		s0.019-0.005,0.019-0.015v-6.585c0-0.229,0.102-0.43,0.306-0.6s0.443-0.256,0.72-0.256h0.396c0.275,0,0.513,0.086,0.711,0.256
		s0.297,0.37,0.297,0.6v9.24c0,0.229-0.099,0.43-0.297,0.6s-0.436,0.255-0.711,0.255h-0.396c-0.684,0-1.188-0.25-1.512-0.75
		l-4.446-6.689c0-0.01-0.006-0.016-0.018-0.016c-0.013,0-0.019,0.006-0.019,0.016v6.585c0,0.229-0.102,0.43-0.306,0.6
		s-0.444,0.255-0.72,0.255H202.736z"/>
	<path style="fill:#322E2C;stroke:#322D2C;stroke-width:0.5;stroke-miterlimit:10;" d="M229.08,67.481
		c-1.074,0.99-2.535,1.485-4.383,1.485c-1.849,0-3.31-0.495-4.384-1.485s-1.61-2.37-1.61-4.14c0-1.771,0.536-3.15,1.61-4.141
		c1.074-0.989,2.535-1.484,4.384-1.484c1.848,0,3.309,0.495,4.383,1.484c1.073,0.99,1.61,2.37,1.61,4.141
		C230.69,65.111,230.153,66.49,229.08,67.481z M228.117,63.341c0-2.6-1.141-3.9-3.42-3.9c-2.28,0-3.421,1.301-3.421,3.9
		s1.141,3.899,3.421,3.899C226.976,67.24,228.117,65.941,228.117,63.341z"/>
	<path style="fill:#322E2C;stroke:#322D2C;stroke-width:0.5;stroke-miterlimit:10;" d="M233.732,68.816
		c-0.275,0-0.513-0.085-0.711-0.255c-0.197-0.17-0.297-0.37-0.297-0.6v-9.24c0-0.229,0.1-0.43,0.297-0.6
		c0.198-0.17,0.436-0.256,0.711-0.256h5.94c0.275,0,0.516,0.086,0.72,0.256s0.307,0.37,0.307,0.6c0,0.23-0.103,0.428-0.307,0.593
		s-0.444,0.247-0.72,0.247h-4.284c-0.096,0-0.144,0.045-0.144,0.135v2.625c0,0.08,0.048,0.12,0.144,0.12h3.979
		c0.264,0,0.491,0.078,0.684,0.232c0.191,0.155,0.288,0.348,0.288,0.578c0,0.229-0.097,0.422-0.288,0.577
		c-0.192,0.155-0.42,0.232-0.684,0.232h-3.979c-0.096,0-0.144,0.04-0.144,0.12v3.78c0,0.229-0.103,0.43-0.307,0.6
		s-0.443,0.255-0.72,0.255H233.732z"/>
	<path style="fill:#322E2C;stroke:#322D2C;stroke-width:0.5;stroke-miterlimit:10;" d="M244.28,68.816
		c-0.275,0-0.513-0.085-0.711-0.255c-0.197-0.17-0.297-0.37-0.297-0.6v-9.24c0-0.229,0.1-0.43,0.297-0.6
		c0.198-0.17,0.436-0.256,0.711-0.256h5.94c0.275,0,0.516,0.086,0.72,0.256s0.307,0.37,0.307,0.6c0,0.23-0.103,0.428-0.307,0.593
		s-0.444,0.247-0.72,0.247h-4.284c-0.096,0-0.144,0.045-0.144,0.135v2.625c0,0.08,0.048,0.12,0.144,0.12h3.979
		c0.264,0,0.491,0.078,0.684,0.232c0.191,0.155,0.288,0.348,0.288,0.578c0,0.229-0.097,0.422-0.288,0.577
		c-0.192,0.155-0.42,0.232-0.684,0.232h-3.979c-0.096,0-0.144,0.04-0.144,0.12v3.78c0,0.229-0.103,0.43-0.307,0.6
		s-0.443,0.255-0.72,0.255H244.28z"/>
	<path style="fill:#322E2C;stroke:#322D2C;stroke-width:0.5;stroke-miterlimit:10;" d="M255.206,68.816
		c-0.275,0-0.516-0.085-0.72-0.255s-0.306-0.37-0.306-0.6v-9.24c0-0.229,0.102-0.43,0.306-0.6s0.444-0.256,0.72-0.256h0.721
		c0.275,0,0.516,0.086,0.72,0.256s0.306,0.37,0.306,0.6v9.24c0,0.229-0.102,0.43-0.306,0.6s-0.444,0.255-0.72,0.255H255.206z"/>
	<path style="fill:#322E2C;stroke:#322D2C;stroke-width:0.5;stroke-miterlimit:10;" d="M265.52,68.966
		c-1.896,0-3.399-0.487-4.509-1.463c-1.11-0.975-1.665-2.362-1.665-4.162c0-1.78,0.536-3.162,1.61-4.147s2.577-1.478,4.51-1.478
		c0.888,0,1.632,0.045,2.231,0.135c0.288,0.04,0.528,0.16,0.72,0.36c0.192,0.2,0.288,0.425,0.288,0.675v0.12
		c0,0.21-0.104,0.375-0.314,0.495s-0.436,0.155-0.675,0.104c-0.589-0.13-1.249-0.194-1.98-0.194c-1.188,0-2.121,0.34-2.799,1.02
		s-1.018,1.65-1.018,2.91c0,1.25,0.352,2.218,1.054,2.902c0.702,0.686,1.641,1.027,2.816,1.027c0.792,0,1.47-0.06,2.034-0.18
		c0.24-0.05,0.465-0.016,0.675,0.104s0.315,0.285,0.315,0.495v0.105c0,0.25-0.093,0.473-0.279,0.667
		c-0.186,0.195-0.429,0.312-0.729,0.353C267.122,68.915,266.36,68.966,265.52,68.966z"/>
	<path style="fill:#322E2C;stroke:#322D2C;stroke-width:0.5;stroke-miterlimit:10;" d="M272.594,68.816
		c-0.276,0-0.517-0.085-0.721-0.255s-0.306-0.37-0.306-0.6v-9.24c0-0.229,0.102-0.43,0.306-0.6s0.444-0.256,0.721-0.256h6.12
		c0.275,0,0.516,0.086,0.72,0.256s0.306,0.37,0.306,0.6c0,0.23-0.102,0.428-0.306,0.593s-0.444,0.247-0.72,0.247h-4.465
		c-0.107,0-0.161,0.045-0.161,0.135v2.415c0,0.09,0.054,0.136,0.161,0.136h4.158c0.276,0,0.507,0.08,0.693,0.239
		c0.186,0.16,0.279,0.351,0.279,0.57s-0.094,0.407-0.279,0.562c-0.187,0.155-0.417,0.232-0.693,0.232h-4.158
		c-0.107,0-0.161,0.045-0.161,0.135v3c0,0.09,0.054,0.136,0.161,0.136h4.465c0.275,0,0.516,0.082,0.72,0.247
		s0.306,0.362,0.306,0.593c0,0.229-0.102,0.43-0.306,0.6s-0.444,0.255-0.72,0.255H272.594z"/>
</g>
<g>
	<g>
		<path style="fill:#B9EAD5;" d="M54.868,30.149c0.415-4.246,1.05-19.552-1.545-23.683c-5.031-0.688-16.823,2.878-17.027,2.728
			c-0.213-0.157-0.826-2.502-0.932-3.324c-4.859,2.277-14.665,6.422-20.332,15.266c-0.588,0.308-0.918-2.083-1.218-2.348
			c-3.266,3.337-8.686,16.1-7.282,20.929c0.105,0.36-2.021-0.433-2.445-1.033c-1.554,3.919,0.856,24.018,12.402,29.067
			c10.415,4.555,34.346-7.847,38.794-22.888c-1.148,0.459-3.569,1.177-3.142,0.441c1.871-2.56,5.89-12.348,6.073-16.471
			C57.205,29.135,55.066,30.118,54.868,30.149"/>
		<path style="fill:#322D2C;" d="M21.72,70.711c-2.268,0-4.306-0.373-6.032-1.128C2.956,64.016,0.409,42.534,2.228,37.948
			c0.271-0.683,0.894-1.162,1.623-1.249c0.176-0.022,0.354-0.018,0.526,0.007c0.542-6.546,5.114-16.358,8.009-19.316
			c0.744-0.76,1.954-0.807,2.753-0.1c0.043,0.038,0.084,0.077,0.123,0.117c5.691-7.061,13.77-10.804,18.333-12.918l0.922-0.429
			c0.579-0.271,1.252-0.249,1.812,0.058s0.939,0.864,1.021,1.498c0.035,0.271,0.144,0.756,0.266,1.238
			c0.049-0.012,0.098-0.024,0.147-0.037c6.048-1.508,12.152-2.835,15.833-2.332c0.587,0.08,1.107,0.416,1.422,0.917
			c2.609,4.153,2.355,15.951,2.054,21.706c0.204-0.074,0.396-0.139,0.569-0.19c0.622-0.186,1.292-0.06,1.803,0.339
			c0.511,0.398,0.797,1.019,0.769,1.666c-0.147,3.325-2.431,9.706-4.469,13.996c0.325,0.076,0.631,0.234,0.888,0.468
			c0.566,0.517,0.788,1.311,0.571,2.046c-2.961,10.013-13.04,17.778-21.485,21.707C30.641,69.499,25.809,70.71,21.72,70.711z
			 M5.669,41.694C5.615,47.666,8.416,62.038,17.29,65.919c3.678,1.606,10.091,0.686,16.739-2.407
			c8.153-3.794,14.85-9.793,17.997-15.917c-0.853-0.096-1.198-0.495-1.418-0.75c-0.608-0.704-0.685-1.702-0.197-2.544
			c0.036-0.061,0.074-0.119,0.115-0.177c1.318-1.803,3.872-7.803,5.059-12.104c-0.156,0.054-0.275,0.083-0.409,0.104
			c-0.611,0.096-1.231-0.098-1.681-0.522c-0.45-0.424-0.678-1.033-0.618-1.649c0.559-5.716,0.688-17.41-0.848-21.578
			c-3.78-0.049-10.333,1.581-13.3,2.321c-2.384,0.596-2.813,0.702-3.62,0.106c-0.5-0.37-0.879-1.207-1.152-2.073
			c-5.123,2.408-12.643,6.308-17.241,13.485c-0.188,0.293-0.449,0.532-0.757,0.693c-0.59,0.308-1.277,0.337-1.888,0.081
			c-0.223-0.094-0.417-0.215-0.586-0.356c-2.776,4.686-5.955,13.352-5.033,16.525c0.273,0.938-0.203,2.011-1.083,2.435
			C6.895,41.82,6.291,41.826,5.669,41.694z"/>
	</g>
	<path style="fill:#322D2C;" d="M19.378,62.328c-0.098,0-0.197-0.007-0.296-0.021c-1.092-0.162-1.847-1.18-1.685-2.272
		c2.756-18.56,10.204-32.065,24.905-45.158c0.823-0.734,2.087-0.662,2.824,0.164c0.734,0.825,0.661,2.089-0.164,2.824
		C31.02,30.28,23.96,43.068,21.354,60.622C21.206,61.615,20.352,62.328,19.378,62.328z"/>
	<path style="fill:#322D2C;" d="M30.82,30.601c-0.622,0-1.234-0.289-1.625-0.832c-2.624-3.648-3.472-8.083-2.451-12.823
		c0.232-1.08,1.298-1.768,2.376-1.534c1.08,0.232,1.767,1.296,1.534,2.376c-0.787,3.657-0.186,6.902,1.788,9.646
		c0.645,0.897,0.441,2.146-0.456,2.792C31.633,30.479,31.224,30.601,30.82,30.601z"/>
	<path style="fill:#322D2C;" d="M35.197,32.008c-1.616,0-3.103-0.288-4.273-0.944c-0.964-0.54-1.307-1.759-0.767-2.722
		c0.541-0.963,1.76-1.307,2.722-0.767c2.076,1.16,7.634-0.042,10.814-2.342c0.896-0.647,2.146-0.446,2.793,0.448
		c0.647,0.895,0.447,2.146-0.448,2.793C43.208,30.52,38.867,32.008,35.197,32.008z"/>
	<path style="fill:#322D2C;" d="M21.03,52.968c-0.365,0-0.734-0.1-1.066-0.309c-4.773-3.015-8.236-9.937-7.884-15.758
		c0.067-1.103,1.015-1.947,2.117-1.876c1.103,0.067,1.942,1.015,1.876,2.117C15.81,41.49,18.57,47.048,22.1,49.277
		c0.934,0.59,1.213,1.825,0.623,2.76C22.343,52.638,21.694,52.968,21.03,52.968z"/>
	<path style="fill:#322D2C;" d="M26.394,53.964c-2.689,0-4.663-0.512-5.378-0.729c-1.057-0.321-1.654-1.438-1.333-2.494
		c0.321-1.058,1.438-1.654,2.495-1.334c1.375,0.417,8.604,2.195,15.75-3.817c0.846-0.71,2.107-0.603,2.818,0.243
		c0.711,0.845,0.603,2.106-0.243,2.817C35.398,52.947,30.185,53.964,26.394,53.964z"/>
</g>
</svg>
